<mxfile modified="2020-12-05T20:05:58.378Z" host="9b5f883b-7b36-4910-9da3-f8b98ccf00f9" agent="5.0 (X11; Linux x86_64) AppleWebKit/537.36 (KHTML, like Gecko) Code/1.51.1 Chrome/83.0.4103.122 Electron/9.3.3 Safari/537.36" etag="OeSs8CHDW7ri47Eq5Sxf" version="13.10.0" type="embed" pages="6">
    <diagram id="AL1-h4hdgsFVayH6yon7" name="Context">
        <mxGraphModel dx="1118" dy="766" grid="1" gridSize="10" guides="1" tooltips="1" connect="1" arrows="1" fold="1" page="1" pageScale="1" pageWidth="827" pageHeight="1169" math="0" shadow="0">
            <root>
                <mxCell id="6J5pDW46mqxVxYY52g6P-0"/>
                <mxCell id="6J5pDW46mqxVxYY52g6P-1" parent="6J5pDW46mqxVxYY52g6P-0"/>
                <mxCell id="c7GYSwN-kZRENEB_QYca-8" style="edgeStyle=none;rounded=0;orthogonalLoop=1;jettySize=auto;html=1;" parent="6J5pDW46mqxVxYY52g6P-1" source="6J5pDW46mqxVxYY52g6P-2" target="c7GYSwN-kZRENEB_QYca-3" edge="1">
                    <mxGeometry relative="1" as="geometry">
                        <mxPoint x="570" y="284" as="targetPoint"/>
                    </mxGeometry>
                </mxCell>
                <mxCell id="c7GYSwN-kZRENEB_QYca-9" style="edgeStyle=none;rounded=0;orthogonalLoop=1;jettySize=auto;html=1;" parent="6J5pDW46mqxVxYY52g6P-1" source="6J5pDW46mqxVxYY52g6P-2" target="c7GYSwN-kZRENEB_QYca-4" edge="1">
                    <mxGeometry relative="1" as="geometry"/>
                </mxCell>
                <mxCell id="6J5pDW46mqxVxYY52g6P-2" value="System" style="rounded=0;whiteSpace=wrap;html=1;fillColor=#000000;fontColor=#FFFFFF;" parent="6J5pDW46mqxVxYY52g6P-1" vertex="1">
                    <mxGeometry x="280" y="240" width="240" height="290" as="geometry"/>
                </mxCell>
                <mxCell id="c7GYSwN-kZRENEB_QYca-2" style="rounded=0;orthogonalLoop=1;jettySize=auto;html=1;" parent="6J5pDW46mqxVxYY52g6P-1" source="c7GYSwN-kZRENEB_QYca-0" target="6J5pDW46mqxVxYY52g6P-2" edge="1">
                    <mxGeometry relative="1" as="geometry"/>
                </mxCell>
                <mxCell id="c7GYSwN-kZRENEB_QYca-0" value="User" style="shape=umlActor;verticalLabelPosition=bottom;verticalAlign=top;html=1;" parent="6J5pDW46mqxVxYY52g6P-1" vertex="1">
                    <mxGeometry x="80" y="290" width="30" height="60" as="geometry"/>
                </mxCell>
                <mxCell id="c7GYSwN-kZRENEB_QYca-3" value="&amp;lt;&amp;lt;system&amp;gt;&amp;gt;&lt;br&gt;Server" style="shape=umlActor;verticalLabelPosition=bottom;verticalAlign=top;html=1;" parent="6J5pDW46mqxVxYY52g6P-1" vertex="1">
                    <mxGeometry x="630" y="260" width="30" height="60" as="geometry"/>
                </mxCell>
                <mxCell id="c7GYSwN-kZRENEB_QYca-4" value="&amp;lt;&amp;lt;system&amp;gt;&amp;gt;&lt;br&gt;Other device" style="shape=umlActor;verticalLabelPosition=bottom;verticalAlign=top;html=1;" parent="6J5pDW46mqxVxYY52g6P-1" vertex="1">
                    <mxGeometry x="630" y="410" width="30" height="60" as="geometry"/>
                </mxCell>
                <mxCell id="UFfQcZI7zQbrrZhTbMZ0-3" style="edgeStyle=none;rounded=0;orthogonalLoop=1;jettySize=auto;html=1;" parent="6J5pDW46mqxVxYY52g6P-1" source="UFfQcZI7zQbrrZhTbMZ0-0" target="6J5pDW46mqxVxYY52g6P-2" edge="1">
                    <mxGeometry relative="1" as="geometry"/>
                </mxCell>
                <mxCell id="UFfQcZI7zQbrrZhTbMZ0-0" value="Client" style="shape=umlActor;verticalLabelPosition=bottom;verticalAlign=top;html=1;" parent="6J5pDW46mqxVxYY52g6P-1" vertex="1">
                    <mxGeometry x="80" y="430" width="30" height="60" as="geometry"/>
                </mxCell>
            </root>
        </mxGraphModel>
    </diagram>
    <diagram name="Packages" id="6YXZeDPopdq_xGOGrKjl">
        <mxGraphModel dx="1118" dy="766" grid="1" gridSize="10" guides="1" tooltips="1" connect="1" arrows="1" fold="1" page="1" pageScale="1" pageWidth="827" pageHeight="1169" math="0" shadow="0">
            <root>
                <mxCell id="E9opURsQbrk2UNjL43F2-0"/>
                <mxCell id="E9opURsQbrk2UNjL43F2-1" parent="E9opURsQbrk2UNjL43F2-0"/>
                <mxCell id="E9opURsQbrk2UNjL43F2-4" value="" style="rounded=0;whiteSpace=wrap;html=1;fillColor=#dae8fc;strokeColor=#6c8ebf;" parent="E9opURsQbrk2UNjL43F2-1" vertex="1">
                    <mxGeometry x="180" y="80" width="480" height="600" as="geometry"/>
                </mxCell>
                <mxCell id="orLF9Xl-NUG6MuRQOzJv-5" style="edgeStyle=none;rounded=0;orthogonalLoop=1;jettySize=auto;html=1;" parent="E9opURsQbrk2UNjL43F2-1" source="E9opURsQbrk2UNjL43F2-6" target="E9opURsQbrk2UNjL43F2-9" edge="1">
                    <mxGeometry relative="1" as="geometry"/>
                </mxCell>
                <mxCell id="E9opURsQbrk2UNjL43F2-6" value="User" style="shape=umlActor;verticalLabelPosition=bottom;verticalAlign=top;html=1;" parent="E9opURsQbrk2UNjL43F2-1" vertex="1">
                    <mxGeometry x="80" y="220" width="30" height="60" as="geometry"/>
                </mxCell>
                <mxCell id="E9opURsQbrk2UNjL43F2-7" value="&amp;lt;&amp;lt;system&amp;gt;&amp;gt;&lt;br&gt;Server" style="shape=umlActor;verticalLabelPosition=bottom;verticalAlign=top;html=1;" parent="E9opURsQbrk2UNjL43F2-1" vertex="1">
                    <mxGeometry x="720" y="270" width="30" height="60" as="geometry"/>
                </mxCell>
                <mxCell id="E9opURsQbrk2UNjL43F2-8" value="&amp;lt;&amp;lt;system&amp;gt;&amp;gt;&lt;br&gt;Other device" style="shape=umlActor;verticalLabelPosition=bottom;verticalAlign=top;html=1;" parent="E9opURsQbrk2UNjL43F2-1" vertex="1">
                    <mxGeometry x="720" y="410" width="30" height="60" as="geometry"/>
                </mxCell>
                <mxCell id="orLF9Xl-NUG6MuRQOzJv-9" style="edgeStyle=none;rounded=0;orthogonalLoop=1;jettySize=auto;html=1;fontColor=#000000;" parent="E9opURsQbrk2UNjL43F2-1" source="orLF9Xl-NUG6MuRQOzJv-10" target="orLF9Xl-NUG6MuRQOzJv-8" edge="1">
                    <mxGeometry relative="1" as="geometry"/>
                </mxCell>
                <mxCell id="orLF9Xl-NUG6MuRQOzJv-11" style="edgeStyle=none;rounded=0;orthogonalLoop=1;jettySize=auto;html=1;fontColor=#000000;" parent="E9opURsQbrk2UNjL43F2-1" source="E9opURsQbrk2UNjL43F2-9" target="orLF9Xl-NUG6MuRQOzJv-10" edge="1">
                    <mxGeometry relative="1" as="geometry"/>
                </mxCell>
                <mxCell id="E9opURsQbrk2UNjL43F2-9" value="User" style="shape=folder;fontStyle=1;spacingTop=10;tabWidth=40;tabHeight=14;tabPosition=left;html=1;fillColor=#fff2cc;strokeColor=#d6b656;fontColor=#000000;" parent="E9opURsQbrk2UNjL43F2-1" vertex="1">
                    <mxGeometry x="220" y="250" width="160" height="100" as="geometry"/>
                </mxCell>
                <mxCell id="orLF9Xl-NUG6MuRQOzJv-2" style="edgeStyle=none;rounded=0;orthogonalLoop=1;jettySize=auto;html=1;" parent="E9opURsQbrk2UNjL43F2-1" source="orLF9Xl-NUG6MuRQOzJv-0" target="orLF9Xl-NUG6MuRQOzJv-1" edge="1">
                    <mxGeometry relative="1" as="geometry"/>
                </mxCell>
                <mxCell id="orLF9Xl-NUG6MuRQOzJv-0" value="Client" style="shape=umlActor;verticalLabelPosition=bottom;verticalAlign=top;html=1;" parent="E9opURsQbrk2UNjL43F2-1" vertex="1">
                    <mxGeometry x="80" y="470" width="30" height="60" as="geometry"/>
                </mxCell>
                <mxCell id="orLF9Xl-NUG6MuRQOzJv-3" style="edgeStyle=none;rounded=0;orthogonalLoop=1;jettySize=auto;html=1;" parent="E9opURsQbrk2UNjL43F2-1" source="orLF9Xl-NUG6MuRQOzJv-1" target="E9opURsQbrk2UNjL43F2-8" edge="1">
                    <mxGeometry relative="1" as="geometry"/>
                </mxCell>
                <mxCell id="orLF9Xl-NUG6MuRQOzJv-4" style="edgeStyle=none;rounded=0;orthogonalLoop=1;jettySize=auto;html=1;" parent="E9opURsQbrk2UNjL43F2-1" source="orLF9Xl-NUG6MuRQOzJv-1" target="E9opURsQbrk2UNjL43F2-7" edge="1">
                    <mxGeometry relative="1" as="geometry"/>
                </mxCell>
                <mxCell id="orLF9Xl-NUG6MuRQOzJv-1" value="Network" style="shape=folder;fontStyle=1;spacingTop=10;tabWidth=40;tabHeight=14;tabPosition=left;html=1;fillColor=#fff2cc;strokeColor=#d6b656;fontColor=#000000;" parent="E9opURsQbrk2UNjL43F2-1" vertex="1">
                    <mxGeometry x="334" y="510" width="160" height="100" as="geometry"/>
                </mxCell>
                <mxCell id="orLF9Xl-NUG6MuRQOzJv-8" value="Storage" style="shape=folder;fontStyle=1;spacingTop=10;tabWidth=40;tabHeight=14;tabPosition=left;html=1;fillColor=#fff2cc;strokeColor=#d6b656;fontColor=#000000;" parent="E9opURsQbrk2UNjL43F2-1" vertex="1">
                    <mxGeometry x="330" y="110" width="160" height="100" as="geometry"/>
                </mxCell>
                <mxCell id="orLF9Xl-NUG6MuRQOzJv-12" style="edgeStyle=none;rounded=0;orthogonalLoop=1;jettySize=auto;html=1;fontColor=#000000;" parent="E9opURsQbrk2UNjL43F2-1" source="orLF9Xl-NUG6MuRQOzJv-10" target="orLF9Xl-NUG6MuRQOzJv-1" edge="1">
                    <mxGeometry relative="1" as="geometry"/>
                </mxCell>
                <mxCell id="orLF9Xl-NUG6MuRQOzJv-10" value="Program" style="shape=folder;fontStyle=1;spacingTop=10;tabWidth=40;tabHeight=14;tabPosition=left;html=1;fillColor=#fff2cc;strokeColor=#d6b656;fontColor=#000000;" parent="E9opURsQbrk2UNjL43F2-1" vertex="1">
                    <mxGeometry x="460" y="250" width="160" height="100" as="geometry"/>
                </mxCell>
            </root>
        </mxGraphModel>
    </diagram>
    <diagram id="WF8cTKXz_o5KtCRZTKww" name="DataManager">
        <mxGraphModel dx="291" dy="766" grid="1" gridSize="10" guides="1" tooltips="1" connect="1" arrows="1" fold="1" page="1" pageScale="1" pageWidth="827" pageHeight="1169" math="0" shadow="0">
            <root>
                <mxCell id="Pk3Y0sDnsGEQqYOogz7k-0"/>
                <mxCell id="Pk3Y0sDnsGEQqYOogz7k-1" parent="Pk3Y0sDnsGEQqYOogz7k-0"/>
                <mxCell id="-yMDUEkYc6U7FfnnZ4ZD-0" value="DataManager" style="ellipse;whiteSpace=wrap;html=1;shadow=0;fillColor=#f8cecc;strokeColor=#b85450;fontColor=#000000;" parent="Pk3Y0sDnsGEQqYOogz7k-1" vertex="1">
                    <mxGeometry x="1171" y="40" width="140" height="70" as="geometry"/>
                </mxCell>
                <mxCell id="-yMDUEkYc6U7FfnnZ4ZD-2" style="rounded=0;orthogonalLoop=1;jettySize=auto;html=1;fontColor=#000000;" parent="Pk3Y0sDnsGEQqYOogz7k-1" source="-yMDUEkYc6U7FfnnZ4ZD-0" target="-yMDUEkYc6U7FfnnZ4ZD-12" edge="1">
                    <mxGeometry relative="1" as="geometry"/>
                </mxCell>
                <mxCell id="-yMDUEkYc6U7FfnnZ4ZD-3" value="Other App" style="ellipse;whiteSpace=wrap;html=1;shadow=0;fillColor=#fff2cc;strokeColor=#d6b656;fontColor=#000000;" parent="Pk3Y0sDnsGEQqYOogz7k-1" vertex="1">
                    <mxGeometry x="1420" y="370" width="140" height="70" as="geometry"/>
                </mxCell>
                <mxCell id="-yMDUEkYc6U7FfnnZ4ZD-8" style="edgeStyle=none;rounded=0;html=1;startArrow=none;startFill=0;jettySize=auto;orthogonalLoop=1;fontColor=#000000;" parent="Pk3Y0sDnsGEQqYOogz7k-1" source="-yMDUEkYc6U7FfnnZ4ZD-0" target="-yMDUEkYc6U7FfnnZ4ZD-3" edge="1">
                    <mxGeometry relative="1" as="geometry">
                        <mxPoint x="1402.165020314972" y="358.36181168292205" as="sourcePoint"/>
                    </mxGeometry>
                </mxCell>
                <mxCell id="-yMDUEkYc6U7FfnnZ4ZD-9" style="edgeStyle=none;rounded=0;html=1;startArrow=none;startFill=0;jettySize=auto;orthogonalLoop=1;fontColor=#000000;" parent="Pk3Y0sDnsGEQqYOogz7k-1" source="-yMDUEkYc6U7FfnnZ4ZD-0" target="-yMDUEkYc6U7FfnnZ4ZD-17" edge="1">
                    <mxGeometry relative="1" as="geometry"/>
                </mxCell>
                <mxCell id="-yMDUEkYc6U7FfnnZ4ZD-10" value="ODP" style="ellipse;whiteSpace=wrap;html=1;shadow=0;fillColor=#fff2cc;strokeColor=#d6b656;fontColor=#000000;" parent="Pk3Y0sDnsGEQqYOogz7k-1" vertex="1">
                    <mxGeometry x="890" y="290" width="140" height="70" as="geometry"/>
                </mxCell>
                <mxCell id="-yMDUEkYc6U7FfnnZ4ZD-12" value="HTML" style="ellipse;whiteSpace=wrap;html=1;shadow=0;fillColor=#fff2cc;strokeColor=#d6b656;fontColor=#000000;" parent="Pk3Y0sDnsGEQqYOogz7k-1" vertex="1">
                    <mxGeometry x="1000" y="390" width="140" height="70" as="geometry"/>
                </mxCell>
                <mxCell id="-yMDUEkYc6U7FfnnZ4ZD-13" style="edgeStyle=none;rounded=0;html=1;startArrow=none;startFill=0;jettySize=auto;orthogonalLoop=1;fontColor=#000000;" parent="Pk3Y0sDnsGEQqYOogz7k-1" source="-yMDUEkYc6U7FfnnZ4ZD-0" target="-yMDUEkYc6U7FfnnZ4ZD-10" edge="1">
                    <mxGeometry relative="1" as="geometry">
                        <mxPoint x="1225.9997222994298" y="459.07348267471116" as="sourcePoint"/>
                    </mxGeometry>
                </mxCell>
                <mxCell id="-yMDUEkYc6U7FfnnZ4ZD-17" value="Stored in Cache" style="ellipse;whiteSpace=wrap;html=1;shadow=0;fillColor=#d5e8d4;strokeColor=#82b366;fontColor=#000000;" parent="Pk3Y0sDnsGEQqYOogz7k-1" vertex="1">
                    <mxGeometry x="910" y="70" width="140" height="70" as="geometry"/>
                </mxCell>
                <mxCell id="-yMDUEkYc6U7FfnnZ4ZD-19" value="Encryption / Decryption" style="ellipse;whiteSpace=wrap;html=1;shadow=0;fillColor=#d5e8d4;strokeColor=#82b366;fontColor=#000000;" parent="Pk3Y0sDnsGEQqYOogz7k-1" vertex="1">
                    <mxGeometry x="1470" y="60" width="140" height="70" as="geometry"/>
                </mxCell>
                <mxCell id="-yMDUEkYc6U7FfnnZ4ZD-20" style="edgeStyle=none;rounded=0;html=1;startArrow=none;startFill=0;jettySize=auto;orthogonalLoop=1;fontColor=#000000;" parent="Pk3Y0sDnsGEQqYOogz7k-1" source="-yMDUEkYc6U7FfnnZ4ZD-0" target="-yMDUEkYc6U7FfnnZ4ZD-19" edge="1">
                    <mxGeometry relative="1" as="geometry"/>
                </mxCell>
                <mxCell id="-yMDUEkYc6U7FfnnZ4ZD-21" value="FTP" style="ellipse;whiteSpace=wrap;html=1;shadow=0;fillColor=#fff2cc;strokeColor=#d6b656;fontColor=#000000;" parent="Pk3Y0sDnsGEQqYOogz7k-1" vertex="1">
                    <mxGeometry x="1230" y="400" width="140" height="70" as="geometry"/>
                </mxCell>
                <mxCell id="-yMDUEkYc6U7FfnnZ4ZD-22" style="rounded=0;html=1;startArrow=none;startFill=0;jettySize=auto;orthogonalLoop=1;fontColor=#000000;" parent="Pk3Y0sDnsGEQqYOogz7k-1" source="-yMDUEkYc6U7FfnnZ4ZD-0" target="-yMDUEkYc6U7FfnnZ4ZD-21" edge="1">
                    <mxGeometry relative="1" as="geometry"/>
                </mxCell>
            </root>
        </mxGraphModel>
    </diagram>
    <diagram id="49TnV0c6ifiZeNyL8bGE" name="AppManager">
        <mxGraphModel dx="1863" dy="1277" grid="1" gridSize="10" guides="1" tooltips="1" connect="1" arrows="1" fold="1" page="1" pageScale="1" pageWidth="827" pageHeight="1169" math="0" shadow="0">
            <root>
                <mxCell id="rX05nqekZC7pyH_LNASz-0"/>
                <mxCell id="rX05nqekZC7pyH_LNASz-1" parent="rX05nqekZC7pyH_LNASz-0"/>
                <mxCell id="_uSwUZgyzYdsKtZDyFy9-1" style="edgeStyle=none;rounded=0;orthogonalLoop=1;jettySize=auto;html=1;fontColor=#000000;" parent="rX05nqekZC7pyH_LNASz-1" source="a-PLmxCelXJSYvkqQ847-0" target="_uSwUZgyzYdsKtZDyFy9-0" edge="1">
                    <mxGeometry relative="1" as="geometry"/>
                </mxCell>
                <mxCell id="a-PLmxCelXJSYvkqQ847-0" value="AppManager" style="ellipse;whiteSpace=wrap;html=1;shadow=0;fillColor=#f8cecc;strokeColor=#b85450;fontColor=#000000;" parent="rX05nqekZC7pyH_LNASz-1" vertex="1">
                    <mxGeometry x="730" y="493.5" width="140" height="70" as="geometry"/>
                </mxCell>
                <mxCell id="a-PLmxCelXJSYvkqQ847-1" value="Data" style="ellipse;whiteSpace=wrap;html=1;fillColor=#dae8fc;strokeColor=#6c8ebf;fontColor=#000000;" parent="rX05nqekZC7pyH_LNASz-1" vertex="1">
                    <mxGeometry x="1060" y="400" width="170" height="70" as="geometry"/>
                </mxCell>
                <mxCell id="a-PLmxCelXJSYvkqQ847-2" value="Permissions&lt;br&gt;" style="ellipse;whiteSpace=wrap;html=1;fillColor=#dae8fc;strokeColor=#6c8ebf;fontColor=#000000;" parent="rX05nqekZC7pyH_LNASz-1" vertex="1">
                    <mxGeometry x="560" y="395" width="170" height="70" as="geometry"/>
                </mxCell>
                <mxCell id="a-PLmxCelXJSYvkqQ847-3" style="edgeStyle=none;rounded=0;html=1;startArrow=none;startFill=0;jettySize=auto;orthogonalLoop=1;strokeColor=#000000;fontColor=#000000;" parent="rX05nqekZC7pyH_LNASz-1" source="a-PLmxCelXJSYvkqQ847-0" target="a-PLmxCelXJSYvkqQ847-2" edge="1">
                    <mxGeometry relative="1" as="geometry"/>
                </mxCell>
                <mxCell id="a-PLmxCelXJSYvkqQ847-4" style="rounded=0;orthogonalLoop=1;jettySize=auto;html=1;fontColor=#000000;" parent="rX05nqekZC7pyH_LNASz-1" source="a-PLmxCelXJSYvkqQ847-5" target="a-PLmxCelXJSYvkqQ847-20" edge="1">
                    <mxGeometry relative="1" as="geometry"/>
                </mxCell>
                <mxCell id="ww1bza0KaRBGcjdTDMza-1" style="rounded=0;orthogonalLoop=1;jettySize=auto;html=1;fontColor=#000000;" parent="rX05nqekZC7pyH_LNASz-1" source="a-PLmxCelXJSYvkqQ847-5" target="ww1bza0KaRBGcjdTDMza-0" edge="1">
                    <mxGeometry relative="1" as="geometry"/>
                </mxCell>
                <mxCell id="a-PLmxCelXJSYvkqQ847-5" value="APIs" style="ellipse;whiteSpace=wrap;html=1;fillColor=#d5e8d4;strokeColor=#82b366;fontColor=#000000;" parent="rX05nqekZC7pyH_LNASz-1" vertex="1">
                    <mxGeometry x="920" y="500" width="170" height="70" as="geometry"/>
                </mxCell>
                <mxCell id="a-PLmxCelXJSYvkqQ847-6" style="edgeStyle=none;rounded=0;html=1;startArrow=none;startFill=0;jettySize=auto;orthogonalLoop=1;fontColor=#000000;" parent="rX05nqekZC7pyH_LNASz-1" source="a-PLmxCelXJSYvkqQ847-0" target="a-PLmxCelXJSYvkqQ847-5" edge="1">
                    <mxGeometry relative="1" as="geometry"/>
                </mxCell>
                <mxCell id="a-PLmxCelXJSYvkqQ847-7" style="edgeStyle=none;rounded=0;html=1;startArrow=none;startFill=0;jettySize=auto;orthogonalLoop=1;fontColor=#000000;" parent="rX05nqekZC7pyH_LNASz-1" source="a-PLmxCelXJSYvkqQ847-5" target="a-PLmxCelXJSYvkqQ847-1" edge="1">
                    <mxGeometry relative="1" as="geometry"/>
                </mxCell>
                <mxCell id="a-PLmxCelXJSYvkqQ847-8" value="GUI" style="ellipse;whiteSpace=wrap;html=1;fillColor=#dae8fc;strokeColor=#6c8ebf;fontColor=#000000;" parent="rX05nqekZC7pyH_LNASz-1" vertex="1">
                    <mxGeometry x="1150" y="500" width="170" height="70" as="geometry"/>
                </mxCell>
                <mxCell id="a-PLmxCelXJSYvkqQ847-9" style="edgeStyle=none;rounded=0;html=1;startArrow=none;startFill=0;jettySize=auto;orthogonalLoop=1;fontColor=#000000;" parent="rX05nqekZC7pyH_LNASz-1" source="a-PLmxCelXJSYvkqQ847-5" target="a-PLmxCelXJSYvkqQ847-8" edge="1">
                    <mxGeometry relative="1" as="geometry"/>
                </mxCell>
                <mxCell id="a-PLmxCelXJSYvkqQ847-10" value="Security App&lt;br&gt;" style="ellipse;whiteSpace=wrap;html=1;fillColor=#fff2cc;strokeColor=#d6b656;fontColor=#000000;" parent="rX05nqekZC7pyH_LNASz-1" vertex="1">
                    <mxGeometry x="510" y="260" width="170" height="70" as="geometry"/>
                </mxCell>
                <mxCell id="a-PLmxCelXJSYvkqQ847-11" style="edgeStyle=none;rounded=0;html=1;entryX=0.5;entryY=1;startArrow=none;startFill=0;jettySize=auto;orthogonalLoop=1;fontColor=#000000;" parent="rX05nqekZC7pyH_LNASz-1" source="a-PLmxCelXJSYvkqQ847-2" target="a-PLmxCelXJSYvkqQ847-10" edge="1">
                    <mxGeometry relative="1" as="geometry"/>
                </mxCell>
                <mxCell id="a-PLmxCelXJSYvkqQ847-12" value="Manual authorization&lt;br&gt;" style="ellipse;whiteSpace=wrap;html=1;fillColor=#fff2cc;strokeColor=#d6b656;fontColor=#000000;" parent="rX05nqekZC7pyH_LNASz-1" vertex="1">
                    <mxGeometry x="350" y="360" width="170" height="70" as="geometry"/>
                </mxCell>
                <mxCell id="a-PLmxCelXJSYvkqQ847-13" style="edgeStyle=none;rounded=0;html=1;startArrow=none;startFill=0;jettySize=auto;orthogonalLoop=1;fontColor=#000000;" parent="rX05nqekZC7pyH_LNASz-1" source="a-PLmxCelXJSYvkqQ847-2" target="a-PLmxCelXJSYvkqQ847-12" edge="1">
                    <mxGeometry relative="1" as="geometry">
                        <mxPoint x="490" y="375" as="targetPoint"/>
                    </mxGeometry>
                </mxCell>
                <mxCell id="a-PLmxCelXJSYvkqQ847-14" value="App types" style="ellipse;whiteSpace=wrap;html=1;fillColor=#dae8fc;strokeColor=#6c8ebf;fontColor=#000000;" parent="rX05nqekZC7pyH_LNASz-1" vertex="1">
                    <mxGeometry x="520" y="530" width="170" height="70" as="geometry"/>
                </mxCell>
                <mxCell id="a-PLmxCelXJSYvkqQ847-15" style="rounded=0;html=1;startArrow=none;startFill=0;jettySize=auto;orthogonalLoop=1;strokeColor=#000000;fontColor=#000000;" parent="rX05nqekZC7pyH_LNASz-1" source="a-PLmxCelXJSYvkqQ847-0" target="a-PLmxCelXJSYvkqQ847-14" edge="1">
                    <mxGeometry relative="1" as="geometry"/>
                </mxCell>
                <mxCell id="B5IrCnFHRbCQaCrZ68_w-3" style="edgeStyle=none;rounded=0;orthogonalLoop=1;jettySize=auto;html=1;fontColor=#000000;" parent="rX05nqekZC7pyH_LNASz-1" source="a-PLmxCelXJSYvkqQ847-16" target="B5IrCnFHRbCQaCrZ68_w-2" edge="1">
                    <mxGeometry relative="1" as="geometry"/>
                </mxCell>
                <mxCell id="B5IrCnFHRbCQaCrZ68_w-5" style="edgeStyle=none;rounded=0;orthogonalLoop=1;jettySize=auto;html=1;fontColor=#000000;" parent="rX05nqekZC7pyH_LNASz-1" source="a-PLmxCelXJSYvkqQ847-16" target="B5IrCnFHRbCQaCrZ68_w-4" edge="1">
                    <mxGeometry relative="1" as="geometry"/>
                </mxCell>
                <mxCell id="a-PLmxCelXJSYvkqQ847-16" value="Formal Language" style="ellipse;whiteSpace=wrap;html=1;fillColor=#fff2cc;strokeColor=#d6b656;fontColor=#000000;" parent="rX05nqekZC7pyH_LNASz-1" vertex="1">
                    <mxGeometry x="430" y="650" width="170" height="70" as="geometry"/>
                </mxCell>
                <mxCell id="a-PLmxCelXJSYvkqQ847-17" style="edgeStyle=none;rounded=0;html=1;startArrow=none;startFill=0;jettySize=auto;orthogonalLoop=1;fontColor=#000000;" parent="rX05nqekZC7pyH_LNASz-1" source="a-PLmxCelXJSYvkqQ847-14" target="a-PLmxCelXJSYvkqQ847-28" edge="1">
                    <mxGeometry relative="1" as="geometry">
                        <mxPoint x="467.5990648352588" y="607.2599064835258" as="targetPoint"/>
                    </mxGeometry>
                </mxCell>
                <mxCell id="a-PLmxCelXJSYvkqQ847-18" style="edgeStyle=none;rounded=0;html=1;startArrow=none;startFill=0;jettySize=auto;orthogonalLoop=1;fontColor=#000000;" parent="rX05nqekZC7pyH_LNASz-1" source="a-PLmxCelXJSYvkqQ847-14" target="a-PLmxCelXJSYvkqQ847-16" edge="1">
                    <mxGeometry relative="1" as="geometry">
                        <mxPoint x="875" y="860" as="targetPoint"/>
                    </mxGeometry>
                </mxCell>
                <mxCell id="a-PLmxCelXJSYvkqQ847-19" style="edgeStyle=none;rounded=0;orthogonalLoop=1;jettySize=auto;html=1;fontColor=#000000;" parent="rX05nqekZC7pyH_LNASz-1" source="a-PLmxCelXJSYvkqQ847-20" target="a-PLmxCelXJSYvkqQ847-27" edge="1">
                    <mxGeometry relative="1" as="geometry"/>
                </mxCell>
                <mxCell id="a-PLmxCelXJSYvkqQ847-20" value="Request" style="ellipse;whiteSpace=wrap;html=1;fillColor=#dae8fc;strokeColor=#6c8ebf;fontColor=#000000;" parent="rX05nqekZC7pyH_LNASz-1" vertex="1">
                    <mxGeometry x="1030" y="610" width="170" height="70" as="geometry"/>
                </mxCell>
                <mxCell id="a-PLmxCelXJSYvkqQ847-23" value="Auto finder&lt;br&gt;" style="ellipse;whiteSpace=wrap;html=1;fillColor=#fff2cc;strokeColor=#d6b656;fontColor=#000000;" parent="rX05nqekZC7pyH_LNASz-1" vertex="1">
                    <mxGeometry x="1240" y="590" width="170" height="70" as="geometry"/>
                </mxCell>
                <mxCell id="a-PLmxCelXJSYvkqQ847-24" style="edgeStyle=none;rounded=0;html=1;startArrow=none;startFill=0;jettySize=auto;orthogonalLoop=1;fontColor=#000000;" parent="rX05nqekZC7pyH_LNASz-1" source="a-PLmxCelXJSYvkqQ847-20" target="a-PLmxCelXJSYvkqQ847-23" edge="1">
                    <mxGeometry relative="1" as="geometry">
                        <mxPoint x="470" y="595" as="targetPoint"/>
                    </mxGeometry>
                </mxCell>
                <mxCell id="a-PLmxCelXJSYvkqQ847-25" value="Request to an App&lt;br&gt;" style="ellipse;whiteSpace=wrap;html=1;fillColor=#fff2cc;strokeColor=#d6b656;fontColor=#000000;" parent="rX05nqekZC7pyH_LNASz-1" vertex="1">
                    <mxGeometry x="1020" y="740" width="170" height="70" as="geometry"/>
                </mxCell>
                <mxCell id="a-PLmxCelXJSYvkqQ847-26" style="edgeStyle=none;rounded=0;html=1;startArrow=none;startFill=0;jettySize=auto;orthogonalLoop=1;fontColor=#000000;" parent="rX05nqekZC7pyH_LNASz-1" source="a-PLmxCelXJSYvkqQ847-20" target="a-PLmxCelXJSYvkqQ847-25" edge="1">
                    <mxGeometry relative="1" as="geometry">
                        <mxPoint x="505.10407640085646" y="725.2512626584708" as="targetPoint"/>
                    </mxGeometry>
                </mxCell>
                <mxCell id="a-PLmxCelXJSYvkqQ847-27" value="Request to a server" style="ellipse;whiteSpace=wrap;html=1;fillColor=#fff2cc;strokeColor=#d6b656;fontColor=#000000;" parent="rX05nqekZC7pyH_LNASz-1" vertex="1">
                    <mxGeometry x="1200" y="690" width="170" height="70" as="geometry"/>
                </mxCell>
                <mxCell id="a-PLmxCelXJSYvkqQ847-28" value="Other languages" style="ellipse;whiteSpace=wrap;html=1;fillColor=#fff2cc;strokeColor=#d6b656;fontColor=#000000;" parent="rX05nqekZC7pyH_LNASz-1" vertex="1">
                    <mxGeometry x="270" y="520" width="170" height="70" as="geometry"/>
                </mxCell>
                <mxCell id="B5IrCnFHRbCQaCrZ68_w-2" value="Compiled" style="ellipse;whiteSpace=wrap;html=1;fillColor=#fff2cc;strokeColor=#d6b656;fontColor=#000000;" parent="rX05nqekZC7pyH_LNASz-1" vertex="1">
                    <mxGeometry x="244" y="740" width="170" height="70" as="geometry"/>
                </mxCell>
                <mxCell id="B5IrCnFHRbCQaCrZ68_w-4" value="Source" style="ellipse;whiteSpace=wrap;html=1;fillColor=#fff2cc;strokeColor=#d6b656;fontColor=#000000;" parent="rX05nqekZC7pyH_LNASz-1" vertex="1">
                    <mxGeometry x="450" y="810" width="170" height="70" as="geometry"/>
                </mxCell>
                <mxCell id="ww1bza0KaRBGcjdTDMza-0" value="Event" style="ellipse;whiteSpace=wrap;html=1;fillColor=#dae8fc;strokeColor=#6c8ebf;fontColor=#000000;" parent="rX05nqekZC7pyH_LNASz-1" vertex="1">
                    <mxGeometry x="870" y="380" width="170" height="70" as="geometry"/>
                </mxCell>
                <mxCell id="_uSwUZgyzYdsKtZDyFy9-0" value="Response" style="ellipse;whiteSpace=wrap;html=1;fillColor=#dae8fc;strokeColor=#6c8ebf;fontColor=#000000;" parent="rX05nqekZC7pyH_LNASz-1" vertex="1">
                    <mxGeometry x="740" y="610" width="170" height="70" as="geometry"/>
                </mxCell>
            </root>
        </mxGraphModel>
    </diagram>
    <diagram id="veBEU8i3NO6MpNnZHCR-" name="EncryptionModule">
        <mxGraphModel dx="1118" dy="766" grid="1" gridSize="10" guides="1" tooltips="1" connect="1" arrows="1" fold="1" page="1" pageScale="1" pageWidth="827" pageHeight="1169" math="0" shadow="0">
            <root>
                <mxCell id="DFyGhb6JVYN7RhWKaapj-0"/>
                <mxCell id="DFyGhb6JVYN7RhWKaapj-1" parent="DFyGhb6JVYN7RhWKaapj-0"/>
                <mxCell id="M4--a1Le92PXE-c29II8-0" style="edgeStyle=none;rounded=0;orthogonalLoop=1;jettySize=auto;html=1;fontColor=#000000;" parent="DFyGhb6JVYN7RhWKaapj-1" source="DFyGhb6JVYN7RhWKaapj-2" target="DFyGhb6JVYN7RhWKaapj-13" edge="1">
                    <mxGeometry relative="1" as="geometry"/>
                </mxCell>
                <mxCell id="DFyGhb6JVYN7RhWKaapj-2" value="KeysBox" style="ellipse;whiteSpace=wrap;html=1;shadow=0;fillColor=#f8cecc;strokeColor=#b85450;fontColor=#000000;" parent="DFyGhb6JVYN7RhWKaapj-1" vertex="1">
                    <mxGeometry x="510" y="260" width="140" height="70" as="geometry"/>
                </mxCell>
                <mxCell id="BXCcWnmFFv5htV1o1z1x-0" style="rounded=0;orthogonalLoop=1;jettySize=auto;html=1;fontColor=#000000;" parent="DFyGhb6JVYN7RhWKaapj-1" source="DFyGhb6JVYN7RhWKaapj-5" target="DFyGhb6JVYN7RhWKaapj-2" edge="1">
                    <mxGeometry relative="1" as="geometry"/>
                </mxCell>
                <mxCell id="DFyGhb6JVYN7RhWKaapj-5" value="Encrypted by user's password" style="ellipse;whiteSpace=wrap;html=1;shadow=0;fillColor=#d5e8d4;strokeColor=#82b366;fontColor=#000000;" parent="DFyGhb6JVYN7RhWKaapj-1" vertex="1">
                    <mxGeometry x="570" y="80" width="140" height="70" as="geometry"/>
                </mxCell>
                <mxCell id="DFyGhb6JVYN7RhWKaapj-7" value="Symmetrical keys" style="ellipse;whiteSpace=wrap;html=1;shadow=0;fillColor=#dae8fc;strokeColor=#6c8ebf;fontColor=#000000;" parent="DFyGhb6JVYN7RhWKaapj-1" vertex="1">
                    <mxGeometry x="650" y="520" width="140" height="70" as="geometry"/>
                </mxCell>
                <mxCell id="DFyGhb6JVYN7RhWKaapj-8" value="Asymmetric keys with public to encryption" style="ellipse;whiteSpace=wrap;html=1;shadow=0;fillColor=#dae8fc;strokeColor=#6c8ebf;fontColor=#000000;" parent="DFyGhb6JVYN7RhWKaapj-1" vertex="1">
                    <mxGeometry x="340" y="510" width="140" height="70" as="geometry"/>
                </mxCell>
                <mxCell id="DFyGhb6JVYN7RhWKaapj-9" value="Asymmetric keys with public to decryption" style="ellipse;whiteSpace=wrap;html=1;shadow=0;fillColor=#dae8fc;strokeColor=#6c8ebf;fontColor=#000000;" parent="DFyGhb6JVYN7RhWKaapj-1" vertex="1">
                    <mxGeometry x="490" y="520" width="140" height="70" as="geometry"/>
                </mxCell>
                <mxCell id="DFyGhb6JVYN7RhWKaapj-10" style="edgeStyle=none;rounded=0;html=1;startArrow=none;startFill=0;jettySize=auto;orthogonalLoop=1;fontColor=#000000;" parent="DFyGhb6JVYN7RhWKaapj-1" source="DFyGhb6JVYN7RhWKaapj-2" target="DFyGhb6JVYN7RhWKaapj-7" edge="1">
                    <mxGeometry relative="1" as="geometry"/>
                </mxCell>
                <mxCell id="DFyGhb6JVYN7RhWKaapj-11" style="edgeStyle=none;rounded=0;html=1;startArrow=none;startFill=0;jettySize=auto;orthogonalLoop=1;fontColor=#000000;" parent="DFyGhb6JVYN7RhWKaapj-1" source="DFyGhb6JVYN7RhWKaapj-2" target="DFyGhb6JVYN7RhWKaapj-8" edge="1">
                    <mxGeometry relative="1" as="geometry"/>
                </mxCell>
                <mxCell id="DFyGhb6JVYN7RhWKaapj-12" style="edgeStyle=none;rounded=0;html=1;startArrow=none;startFill=0;jettySize=auto;orthogonalLoop=1;fontColor=#000000;" parent="DFyGhb6JVYN7RhWKaapj-1" source="DFyGhb6JVYN7RhWKaapj-2" target="DFyGhb6JVYN7RhWKaapj-9" edge="1">
                    <mxGeometry relative="1" as="geometry"/>
                </mxCell>
                <mxCell id="DFyGhb6JVYN7RhWKaapj-13" value="Sharing keys" style="ellipse;whiteSpace=wrap;html=1;shadow=0;fillColor=#d5e8d4;strokeColor=#82b366;fontColor=#000000;" parent="DFyGhb6JVYN7RhWKaapj-1" vertex="1">
                    <mxGeometry x="670" y="330" width="140" height="70" as="geometry"/>
                </mxCell>
                <mxCell id="M4--a1Le92PXE-c29II8-3" style="edgeStyle=none;rounded=0;orthogonalLoop=1;jettySize=auto;html=1;fontColor=#000000;" parent="DFyGhb6JVYN7RhWKaapj-1" source="M4--a1Le92PXE-c29II8-1" target="M4--a1Le92PXE-c29II8-2" edge="1">
                    <mxGeometry relative="1" as="geometry"/>
                </mxCell>
                <mxCell id="M4--a1Le92PXE-c29II8-6" style="edgeStyle=none;rounded=0;orthogonalLoop=1;jettySize=auto;html=1;fontColor=#000000;" parent="DFyGhb6JVYN7RhWKaapj-1" source="M4--a1Le92PXE-c29II8-1" target="M4--a1Le92PXE-c29II8-5" edge="1">
                    <mxGeometry relative="1" as="geometry"/>
                </mxCell>
                <mxCell id="5ZMODKo_jDgsa89PHrTJ-5" style="edgeStyle=none;rounded=0;orthogonalLoop=1;jettySize=auto;html=1;fontColor=#000000;" parent="DFyGhb6JVYN7RhWKaapj-1" source="M4--a1Le92PXE-c29II8-1" target="5ZMODKo_jDgsa89PHrTJ-0" edge="1">
                    <mxGeometry relative="1" as="geometry"/>
                </mxCell>
                <mxCell id="M4--a1Le92PXE-c29II8-1" value="Encryption for communications" style="ellipse;whiteSpace=wrap;html=1;shadow=0;fillColor=#f8cecc;strokeColor=#b85450;fontColor=#000000;" parent="DFyGhb6JVYN7RhWKaapj-1" vertex="1">
                    <mxGeometry x="190" y="60" width="140" height="70" as="geometry"/>
                </mxCell>
                <mxCell id="x0RzcMRs4jeraa-7IA-y-0" style="edgeStyle=none;rounded=0;orthogonalLoop=1;jettySize=auto;html=1;fontColor=#000000;" parent="DFyGhb6JVYN7RhWKaapj-1" source="M4--a1Le92PXE-c29II8-2" target="DFyGhb6JVYN7RhWKaapj-2" edge="1">
                    <mxGeometry relative="1" as="geometry"/>
                </mxCell>
                <mxCell id="M4--a1Le92PXE-c29II8-2" value="Without Authority" style="ellipse;whiteSpace=wrap;html=1;shadow=0;fillColor=#fff2cc;strokeColor=#d6b656;fontColor=#000000;" parent="DFyGhb6JVYN7RhWKaapj-1" vertex="1">
                    <mxGeometry x="300" y="260" width="140" height="70" as="geometry"/>
                </mxCell>
                <mxCell id="M4--a1Le92PXE-c29II8-5" value="With Authority" style="ellipse;whiteSpace=wrap;html=1;shadow=0;fillColor=#fff2cc;strokeColor=#d6b656;fontColor=#000000;" parent="DFyGhb6JVYN7RhWKaapj-1" vertex="1">
                    <mxGeometry x="100" y="230" width="140" height="70" as="geometry"/>
                </mxCell>
                <mxCell id="5ZMODKo_jDgsa89PHrTJ-3" style="edgeStyle=none;rounded=0;orthogonalLoop=1;jettySize=auto;html=1;fontColor=#000000;" parent="DFyGhb6JVYN7RhWKaapj-1" source="5ZMODKo_jDgsa89PHrTJ-0" target="5ZMODKo_jDgsa89PHrTJ-1" edge="1">
                    <mxGeometry relative="1" as="geometry"/>
                </mxCell>
                <mxCell id="5ZMODKo_jDgsa89PHrTJ-4" style="edgeStyle=none;rounded=0;orthogonalLoop=1;jettySize=auto;html=1;fontColor=#000000;" parent="DFyGhb6JVYN7RhWKaapj-1" source="5ZMODKo_jDgsa89PHrTJ-0" target="5ZMODKo_jDgsa89PHrTJ-2" edge="1">
                    <mxGeometry relative="1" as="geometry"/>
                </mxCell>
                <mxCell id="5ZMODKo_jDgsa89PHrTJ-0" value="Proxy" style="ellipse;whiteSpace=wrap;html=1;shadow=0;fillColor=#d5e8d4;strokeColor=#82b366;fontColor=#000000;" parent="DFyGhb6JVYN7RhWKaapj-1" vertex="1">
                    <mxGeometry x="230" y="360" width="140" height="70" as="geometry"/>
                </mxCell>
                <mxCell id="5ZMODKo_jDgsa89PHrTJ-1" value="VPN" style="ellipse;whiteSpace=wrap;html=1;shadow=0;fillColor=#fff2cc;strokeColor=#d6b656;fontColor=#000000;" parent="DFyGhb6JVYN7RhWKaapj-1" vertex="1">
                    <mxGeometry x="30" y="380" width="140" height="70" as="geometry"/>
                </mxCell>
                <mxCell id="5ZMODKo_jDgsa89PHrTJ-2" value="Network" style="ellipse;whiteSpace=wrap;html=1;shadow=0;fillColor=#fff2cc;strokeColor=#d6b656;fontColor=#000000;" parent="DFyGhb6JVYN7RhWKaapj-1" vertex="1">
                    <mxGeometry x="120" y="500" width="140" height="70" as="geometry"/>
                </mxCell>
            </root>
        </mxGraphModel>
    </diagram>
    <diagram id="b-lQx8sLt_0nUlZw0DZu" name="UserManager">
        <mxGraphModel dx="1118" dy="766" grid="1" gridSize="10" guides="1" tooltips="1" connect="1" arrows="1" fold="1" page="1" pageScale="1" pageWidth="827" pageHeight="1169" math="0" shadow="0">
            <root>
                <mxCell id="DyDfvB5neiGvLx3PL-S7-0"/>
                <mxCell id="DyDfvB5neiGvLx3PL-S7-1" parent="DyDfvB5neiGvLx3PL-S7-0"/>
                <mxCell id="DyDfvB5neiGvLx3PL-S7-2" value="UserManager" style="ellipse;whiteSpace=wrap;html=1;shadow=0;fillColor=#f8cecc;strokeColor=#b85450;fontColor=#000000;" parent="DyDfvB5neiGvLx3PL-S7-1" vertex="1">
                    <mxGeometry x="320" y="80" width="140" height="70" as="geometry"/>
                </mxCell>
                <mxCell id="DyDfvB5neiGvLx3PL-S7-3" value="Login" style="ellipse;whiteSpace=wrap;html=1;shadow=0;fillColor=#dae8fc;strokeColor=#6c8ebf;fontColor=#000000;" parent="DyDfvB5neiGvLx3PL-S7-1" vertex="1">
                    <mxGeometry x="100" y="220" width="140" height="70" as="geometry"/>
                </mxCell>
                <mxCell id="DyDfvB5neiGvLx3PL-S7-4" value="Encryption / Decryption&lt;br&gt;" style="ellipse;whiteSpace=wrap;html=1;fillColor=#dae8fc;strokeColor=#6c8ebf;fontColor=#000000;" parent="DyDfvB5neiGvLx3PL-S7-1" vertex="1">
                    <mxGeometry x="620" y="410" width="170" height="70" as="geometry"/>
                </mxCell>
                <mxCell id="DyDfvB5neiGvLx3PL-S7-5" style="edgeStyle=none;rounded=0;html=1;startArrow=none;startFill=0;jettySize=auto;orthogonalLoop=1;fontColor=#000000;" parent="DyDfvB5neiGvLx3PL-S7-1" source="DyDfvB5neiGvLx3PL-S7-2" target="DyDfvB5neiGvLx3PL-S7-3" edge="1">
                    <mxGeometry relative="1" as="geometry"/>
                </mxCell>
                <mxCell id="DyDfvB5neiGvLx3PL-S7-6" style="edgeStyle=none;rounded=0;html=1;startArrow=none;startFill=0;jettySize=auto;orthogonalLoop=1;fontColor=#000000;" parent="DyDfvB5neiGvLx3PL-S7-1" source="9J5Ej-AdiL1yNl3GE8GN-0" target="DyDfvB5neiGvLx3PL-S7-4" edge="1">
                    <mxGeometry relative="1" as="geometry"/>
                </mxCell>
                <mxCell id="DyDfvB5neiGvLx3PL-S7-7" value="Main apps" style="ellipse;whiteSpace=wrap;html=1;fillColor=#dae8fc;strokeColor=#6c8ebf;fontColor=#000000;" parent="DyDfvB5neiGvLx3PL-S7-1" vertex="1">
                    <mxGeometry x="430" y="410" width="170" height="70" as="geometry"/>
                </mxCell>
                <mxCell id="DyDfvB5neiGvLx3PL-S7-8" style="edgeStyle=none;rounded=0;html=1;startArrow=none;startFill=0;jettySize=auto;orthogonalLoop=1;fontColor=#000000;" parent="DyDfvB5neiGvLx3PL-S7-1" source="DyDfvB5neiGvLx3PL-S7-2" target="9J5Ej-AdiL1yNl3GE8GN-0" edge="1">
                    <mxGeometry relative="1" as="geometry"/>
                </mxCell>
                <mxCell id="DyDfvB5neiGvLx3PL-S7-17" value="By Tookantook protocol" style="ellipse;whiteSpace=wrap;html=1;shadow=0;fillColor=#fff2cc;strokeColor=#d6b656;fontColor=#000000;" parent="DyDfvB5neiGvLx3PL-S7-1" vertex="1">
                    <mxGeometry x="180" y="400" width="140" height="70" as="geometry"/>
                </mxCell>
                <mxCell id="DyDfvB5neiGvLx3PL-S7-18" style="edgeStyle=none;rounded=0;html=1;startArrow=none;startFill=0;jettySize=auto;orthogonalLoop=1;fontColor=#000000;" parent="DyDfvB5neiGvLx3PL-S7-1" source="DyDfvB5neiGvLx3PL-S7-3" target="DyDfvB5neiGvLx3PL-S7-17" edge="1">
                    <mxGeometry relative="1" as="geometry"/>
                </mxCell>
                <mxCell id="DyDfvB5neiGvLx3PL-S7-19" value="In local" style="ellipse;whiteSpace=wrap;html=1;shadow=0;fillColor=#fff2cc;strokeColor=#d6b656;fontColor=#000000;" parent="DyDfvB5neiGvLx3PL-S7-1" vertex="1">
                    <mxGeometry x="20" y="400" width="140" height="70" as="geometry"/>
                </mxCell>
                <mxCell id="DyDfvB5neiGvLx3PL-S7-20" style="edgeStyle=none;rounded=0;html=1;startArrow=none;startFill=0;jettySize=auto;orthogonalLoop=1;fontColor=#000000;" parent="DyDfvB5neiGvLx3PL-S7-1" source="DyDfvB5neiGvLx3PL-S7-3" target="DyDfvB5neiGvLx3PL-S7-19" edge="1">
                    <mxGeometry relative="1" as="geometry"/>
                </mxCell>
                <mxCell id="9J5Ej-AdiL1yNl3GE8GN-1" style="rounded=0;orthogonalLoop=1;jettySize=auto;html=1;fontColor=#000000;" parent="DyDfvB5neiGvLx3PL-S7-1" source="9J5Ej-AdiL1yNl3GE8GN-0" target="DyDfvB5neiGvLx3PL-S7-7" edge="1">
                    <mxGeometry relative="1" as="geometry"/>
                </mxCell>
                <mxCell id="9J5Ej-AdiL1yNl3GE8GN-0" value="Account" style="ellipse;whiteSpace=wrap;html=1;fillColor=#dae8fc;strokeColor=#6c8ebf;fontColor=#000000;" parent="DyDfvB5neiGvLx3PL-S7-1" vertex="1">
                    <mxGeometry x="510" y="220" width="170" height="70" as="geometry"/>
                </mxCell>
            </root>
        </mxGraphModel>
    </diagram>
</mxfile>